<svg xmlns="http://www.w3.org/2000/svg" viewBox="0 0 1200 760" role="img" aria-labelledby="title desc">
  <title id="title">Incident timeline diagram</title>
  <desc id="desc">A clearer incident timeline that emphasizes sequence first, with time, owner, event, and customer impact shown in one stable shape.</desc>
  <defs>
    <style>
      .bg { fill: #efe6da; }
      .canvas { fill: #f7f1e8; stroke: #dbcfc1; stroke-width: 1.8; }
      .rule { stroke: #d7cab8; stroke-width: 1.8; }
      .ink { fill: #241c17; font-family: "Manrope", "Aptos", sans-serif; }
      .muted { fill: #5f574f; font-family: "Manrope", "Aptos", sans-serif; }
      .display { fill: #241c17; font-family: "Newsreader", Georgia, serif; }
      .kicker { font-size: 15px; font-weight: 700; letter-spacing: 0.16em; }
      .micro { font-size: 13px; font-weight: 700; letter-spacing: 0.08em; }
      .title { font-size: 56px; font-weight: 500; }
      .subtitle { font-size: 21px; line-height: 1.45; }
      .panel { fill: #fbf8f3; stroke: #d8ccbf; stroke-width: 1.8; }
      .panel-soft { fill: #fffdf9; stroke: #ddd1c4; stroke-width: 1.5; }
      .dark { fill: #413631; }
      .section { font-size: 18px; font-weight: 700; letter-spacing: 0.06em; }
      .time { font-size: 16px; font-weight: 700; letter-spacing: 0.08em; }
      .owner { font-size: 14px; font-weight: 700; letter-spacing: 0.08em; }
      .body { font-size: 18px; font-weight: 700; }
      .small { font-size: 14px; line-height: 1.38; }
      .pill-text { font-size: 13px; font-weight: 700; text-anchor: middle; }
      .rail { fill: none; stroke: #baa795; stroke-width: 3.2; stroke-linecap: round; }
      .soft-rail { fill: none; stroke: #d3c1af; stroke-width: 2; stroke-linecap: round; stroke-dasharray: 8 10; }
      .blue { fill: #6d86b3; }
      .green { fill: #4f7f6f; }
      .gold { fill: #b59143; }
      .rust { fill: #a86347; }
      .white { fill: #ffffff; }
    </style>
  </defs>

  <rect width="1200" height="760" class="bg" />
  <rect x="24" y="24" width="1152" height="712" rx="28" class="canvas" />
  <line x1="60" y1="58" x2="1140" y2="58" class="rule" />

  <text x="72" y="38" class="ink kicker">INCIDENT TIMELINE</text>
  <text x="1096" y="38" class="ink micro" text-anchor="end">time • owner • event • impact</text>

  <text x="72" y="176" class="display title">
    <tspan x="72" dy="0">Sequence first,</tspan>
    <tspan x="72" dy="56">interpretation second</tspan>
  </text>
  <text x="72" y="292" class="muted subtitle">
    <tspan x="72" dy="0">A first-pass incident view does not need to be fancy.</tspan>
    <tspan x="72" dy="32">It needs one stable shape that people can read the same way every time.</tspan>
  </text>

  <rect x="808" y="98" width="312" height="118" rx="18" class="panel-soft" />
  <text x="838" y="134" class="ink section">FIRST PASS BAR</text>
  <text x="838" y="164" class="muted small">
    <tspan x="838" dy="0">Lock the event order before the room</tspan>
    <tspan x="838" dy="20">drifts into blame or theory.</tspan>
  </text>

  <path d="M144 430 H1056" class="rail" />
  <path d="M144 430 H1056" class="soft-rail" />

  <circle cx="210" cy="430" r="12" class="blue" />
  <circle cx="436" cy="430" r="12" class="gold" />
  <circle cx="694" cy="430" r="12" class="rust" />
  <circle cx="956" cy="430" r="12" class="green" />

  <rect x="120" y="320" width="180" height="86" rx="18" class="panel-soft" />
  <rect x="346" y="470" width="180" height="86" rx="18" class="panel-soft" />
  <rect x="604" y="320" width="180" height="86" rx="18" class="panel-soft" />
  <rect x="866" y="470" width="180" height="86" rx="18" class="panel-soft" />

  <text x="144" y="348" class="ink time">08:12</text>
  <text x="370" y="498" class="ink time">08:29</text>
  <text x="628" y="348" class="ink time">09:04</text>
  <text x="890" y="498" class="ink time">09:22</text>

  <text x="144" y="372" class="muted owner">ON-CALL</text>
  <text x="144" y="390" class="ink body">Alert lands</text>
  <text x="144" y="410" class="muted small">error spike on ingest</text>

  <text x="370" y="522" class="muted owner">SUPPORT + SRE</text>
  <text x="370" y="540" class="ink body">Impact confirmed</text>
  <text x="370" y="560" class="muted small">handoff becomes clear</text>

  <text x="628" y="372" class="muted owner">SERVICE TEAM</text>
  <text x="628" y="390" class="ink body">Mitigation starts</text>
  <text x="628" y="410" class="muted small">traffic moves off the bad path</text>

  <text x="890" y="522" class="muted owner">INCIDENT LEAD</text>
  <text x="890" y="540" class="ink body">Recovery visible</text>
  <text x="890" y="560" class="muted small">backlog starts to clear</text>

  <path d="M210 418 V406" class="rail" />
  <path d="M436 442 V470" class="rail" />
  <path d="M694 418 V406" class="rail" />
  <path d="M956 442 V470" class="rail" />

  <rect x="72" y="614" width="1056" height="72" rx="18" class="panel" />
  <text x="104" y="648" class="ink section">CUSTOMER IMPACT BAND</text>
  <rect x="286" y="636" width="156" height="22" rx="11" fill="#eef2fa" />
  <rect x="454" y="636" width="188" height="22" rx="11" fill="#f7efe1" />
  <rect x="654" y="636" width="176" height="22" rx="11" fill="#f8e8e0" />
  <rect x="842" y="636" width="156" height="22" rx="11" fill="#edf5ef" />
  <text x="364" y="651" fill="#5572a1" class="pill-text">signal found</text>
  <text x="548" y="651" fill="#8d6a22" class="pill-text">impact rising</text>
  <text x="742" y="651" fill="#9c5338" class="pill-text">pain steady</text>
  <text x="920" y="651" fill="#3f6f60" class="pill-text">recovery visible</text>

  <rect x="72" y="694" width="1056" height="32" rx="12" class="dark" />
  <text x="600" y="716" class="white small" text-anchor="middle">Once the sequence is stable, the review can focus on decisions instead of memory.</text>
</svg>
