<svg xmlns="http://www.w3.org/2000/svg" viewBox="0 0 1200 760" role="img" aria-labelledby="title desc">
  <title id="title">Workspace loop diagram</title>
  <desc id="desc">A slide-style diagram showing raw inputs flowing into one active working session and then into reusable outputs such as decks, notes, and repo updates.</desc>
  <defs>
    <style>
      .bg { fill: #efe6da; }
      .canvas { fill: #f7f1e8; stroke: #dbcfc1; stroke-width: 1.8; }
      .rule { stroke: #d7cab8; stroke-width: 1.8; }
      .ink { fill: #241c17; font-family: "Manrope", "Aptos", sans-serif; }
      .muted { fill: #5f574f; font-family: "Manrope", "Aptos", sans-serif; }
      .display { fill: #241c17; font-family: "Newsreader", Georgia, serif; }
      .kicker { font-size: 15px; font-weight: 700; letter-spacing: 0.16em; }
      .micro { font-size: 12px; font-weight: 700; letter-spacing: 0.08em; }
      .title { font-size: 56px; font-weight: 500; }
      .subtitle { font-size: 21px; line-height: 1.45; }
      .panel { fill: #fbf8f3; stroke: #d8ccbf; stroke-width: 1.8; }
      .panel-soft { fill: #fffdf9; stroke: #ddd1c4; stroke-width: 1.5; }
      .chip { fill: #f7f1e8; stroke: #b89a4a; stroke-width: 1.6; }
      .chip-blue { fill: #edf2fb; stroke: #7e9ac7; stroke-width: 1.6; }
      .chip-green { fill: #edf5ef; stroke: #5f8d7d; stroke-width: 1.6; }
      .chip-text { font-size: 15px; font-weight: 700; }
      .section { font-size: 18px; font-weight: 700; letter-spacing: 0.06em; }
      .body { font-size: 22px; font-weight: 700; }
      .small { font-size: 15px; line-height: 1.42; }
      .code { font-family: "SFMono-Regular", Menlo, Consolas, monospace; font-size: 16px; font-weight: 700; fill: #2a2521; }
      .card-title { font-size: 18px; font-weight: 700; }
      .accent-bar { fill: #413631; }
      .navy { fill: #6d86b3; }
      .green { fill: #4f7f6f; }
      .gold { fill: #b59143; }
      .rust { fill: #a86347; }
      .line { fill: none; stroke: #9f8c7d; stroke-width: 2.6; stroke-linecap: round; stroke-linejoin: round; }
      .line-soft { fill: none; stroke: #cbb9aa; stroke-width: 2; stroke-linecap: round; stroke-linejoin: round; stroke-dasharray: 8 10; }
      .white { fill: #ffffff; }
    </style>
  </defs>

  <rect width="1200" height="760" class="bg" />
  <rect x="24" y="24" width="1152" height="712" rx="28" class="canvas" />
  <line x1="60" y1="58" x2="1140" y2="58" class="rule" />

  <text x="72" y="38" class="ink kicker">WORKSPACE LOOP</text>
  <text x="1048" y="38" class="ink micro" text-anchor="end">source • session • output</text>

  <rect x="72" y="86" width="154" height="34" rx="17" class="chip-green" />
  <rect x="242" y="86" width="166" height="34" rx="17" class="chip-blue" />
  <rect x="424" y="86" width="168" height="34" rx="17" class="chip" />
  <text x="149" y="108" class="ink chip-text" text-anchor="middle">raw inputs</text>
  <text x="325" y="108" class="ink chip-text" text-anchor="middle">active session</text>
  <text x="508" y="108" class="ink chip-text" text-anchor="middle">reusable outputs</text>

  <text x="72" y="184" class="display title">
    <tspan x="72" dy="0">The useful part is keeping</tspan>
    <tspan x="72" dy="58">the work connected</tspan>
  </text>
  <text x="72" y="304" class="muted subtitle">
    <tspan x="72" dy="0">Notes, files, drafts, and outputs stay in one working state,</tspan>
    <tspan x="72" dy="32">so the second artifact is easier than the first.</tspan>
  </text>

  <rect x="790" y="96" width="330" height="154" rx="18" class="panel-soft" />
  <text x="820" y="132" class="ink section">WHAT CHANGES</text>
  <circle cx="824" cy="168" r="4" class="navy" />
  <circle cx="824" cy="198" r="4" class="green" />
  <circle cx="824" cy="228" r="4" class="gold" />
  <text x="842" y="168" class="muted small">
    <tspan x="842" dy="0">Less rework</tspan>
    <tspan x="842" dy="19">between outputs</tspan>
  </text>
  <text x="842" y="208" class="muted small">Easier review against source</text>
  <text x="842" y="232" class="muted small">
    <tspan x="842" dy="0">Shorter path to the next</tspan>
    <tspan x="842" dy="19">useful output</tspan>
  </text>

  <rect x="72" y="344" width="252" height="310" rx="22" class="panel" />
  <text x="100" y="382" class="ink section">RAW INPUTS</text>

  <rect x="100" y="406" width="196" height="50" rx="14" class="panel-soft" />
  <rect x="100" y="470" width="196" height="50" rx="14" class="panel-soft" />
  <rect x="100" y="534" width="196" height="50" rx="14" class="panel-soft" />
  <rect x="100" y="598" width="196" height="50" rx="14" class="panel-soft" />

  <text x="120" y="437" class="code">customer-notes.md</text>
  <text x="120" y="501" class="code">usage-export.csv</text>
  <text x="120" y="565" class="code">draft-deck.pptx</text>
  <text x="120" y="629" class="code">screenshots/</text>

  <text x="100" y="684" class="muted small">
    <tspan x="100" dy="0">Calls, exports, drafts, and visuals</tspan>
    <tspan x="100" dy="24">stay close to the same session.</tspan>
  </text>

  <path d="M324 500 C344 500 350 500 368 500" class="line" />
  <path d="M760 500 C778 500 784 500 796 500" class="line" />

  <rect x="368" y="322" width="392" height="362" rx="24" class="panel" />
  <rect x="368" y="322" width="392" height="14" rx="24" class="accent-bar" />
  <text x="400" y="374" class="ink section">ACTIVE SESSION</text>
  <text x="400" y="402" class="muted small">One place to inspect, compare, draft, and write the result back.</text>

  <rect x="400" y="438" width="146" height="104" rx="18" fill="#eef5f0" stroke="#c9dbd1" stroke-width="1.6" />
  <rect x="582" y="438" width="146" height="104" rx="18" fill="#eef2fa" stroke="#c9d5ea" stroke-width="1.6" />
  <text x="422" y="472" class="ink card-title">Inspect source</text>
  <text x="422" y="500" class="muted small">
    <tspan x="422" dy="0">open files</tspan>
    <tspan x="422" dy="22">check context</tspan>
  </text>
  <text x="604" y="472" class="ink card-title">Pull signal</text>
  <text x="604" y="500" class="muted small">
    <tspan x="604" dy="0">compare changes</tspan>
    <tspan x="604" dy="20">tighten the point</tspan>
  </text>

  <path d="M546 490 H582" class="line-soft" />

  <rect x="400" y="566" width="328" height="90" rx="18" fill="#fdfaf5" stroke="#d7cabd" stroke-width="1.6" />
  <text x="422" y="598" class="ink card-title">Draft, check, write back</text>
  <text x="422" y="624" class="muted small">same files • same thread • same state</text>
  <rect x="422" y="634" width="86" height="10" rx="5" class="navy" />
  <rect x="518" y="634" width="62" height="10" rx="5" class="green" />
  <rect x="590" y="634" width="48" height="10" rx="5" class="gold" />
  <rect x="648" y="634" width="56" height="10" rx="5" class="rust" />

  <rect x="796" y="344" width="332" height="310" rx="22" class="panel" />
  <text x="824" y="382" class="ink section">REUSABLE OUTPUTS</text>

  <rect x="824" y="404" width="276" height="54" rx="16" fill="#fbf8f2" stroke="#d8ccbe" stroke-width="1.4" />
  <rect x="824" y="470" width="276" height="54" rx="16" fill="#fbf8f2" stroke="#d8ccbe" stroke-width="1.4" />
  <rect x="824" y="536" width="276" height="54" rx="16" fill="#fbf8f2" stroke="#d8ccbe" stroke-width="1.4" />
  <rect x="824" y="602" width="276" height="54" rx="16" fill="#fbf8f2" stroke="#d8ccbe" stroke-width="1.4" />

  <rect x="844" y="418" width="46" height="26" rx="6" class="navy" />
  <rect x="844" y="484" width="46" height="26" rx="6" class="green" />
  <rect x="844" y="550" width="46" height="26" rx="6" class="gold" />
  <rect x="844" y="616" width="46" height="26" rx="6" class="rust" />

  <text x="908" y="436" class="ink card-title">Editable deck</text>
  <text x="908" y="502" class="ink card-title">Write-up or recap</text>
  <text x="908" y="568" class="ink card-title">Decision memo</text>
  <text x="908" y="634" class="ink card-title">Repo or site edit</text>

  <text x="908" y="450" class="muted small">
    <tspan x="908" dy="0">reviewable output,</tspan>
    <tspan x="908" dy="19">not a restart</tspan>
  </text>
  <text x="908" y="516" class="muted small">
    <tspan x="908" dy="0">a shorter pass from</tspan>
    <tspan x="908" dy="19">the same context</tspan>
  </text>
  <text x="908" y="582" class="muted small">
    <tspan x="908" dy="0">turn the thread into</tspan>
    <tspan x="908" dy="19">a usable call</tspan>
  </text>
  <text x="908" y="648" class="muted small">
    <tspan x="908" dy="0">make the change and</tspan>
    <tspan x="908" dy="19">show the diff</tspan>
  </text>

  <rect x="72" y="694" width="1056" height="32" rx="12" class="accent-bar" />
  <text x="600" y="716" class="white chip-text" text-anchor="middle">The win is a tighter loop from source material to usable output.</text>
</svg>
