<svg xmlns="http://www.w3.org/2000/svg" viewBox="0 0 1200 760" role="img" aria-labelledby="title desc">
  <title id="title">Dependency board diagram</title>
  <desc id="desc">A cleaner dependency board that shows ownership, status, and downstream blocked work before the milestone view hides the risk.</desc>
  <defs>
    <style>
      .bg { fill: #efe6da; }
      .canvas { fill: #f7f1e8; stroke: #dbcfc1; stroke-width: 1.8; }
      .rule { stroke: #d7cab8; stroke-width: 1.8; }
      .ink { fill: #241c17; font-family: "Manrope", "Aptos", sans-serif; }
      .muted { fill: #5f574f; font-family: "Manrope", "Aptos", sans-serif; }
      .display { fill: #241c17; font-family: "Newsreader", Georgia, serif; }
      .kicker { font-size: 15px; font-weight: 700; letter-spacing: 0.16em; }
      .micro { font-size: 13px; font-weight: 700; letter-spacing: 0.08em; }
      .title { font-size: 53px; font-weight: 500; }
      .subtitle { font-size: 21px; line-height: 1.45; }
      .panel { fill: #fbf8f3; stroke: #d8ccbf; stroke-width: 1.8; }
      .panel-soft { fill: #fffdf9; stroke: #ddd1c4; stroke-width: 1.5; }
      .dark { fill: #413631; }
      .table-head { fill: #4a403a; }
      .row-alt { fill: #f4ede3; }
      .section { font-size: 18px; font-weight: 700; letter-spacing: 0.06em; }
      .metric-num { font-size: 34px; font-weight: 700; }
      .metric-copy { font-size: 15px; }
      .cell { font-size: 18px; font-weight: 700; }
      .small { font-size: 15px; line-height: 1.42; }
      .pill-text { font-size: 14px; font-weight: 700; text-anchor: middle; }
      .line { stroke: #ddd1c3; stroke-width: 1.4; }
      .line-strong { stroke: #cabaa8; stroke-width: 2; fill: none; stroke-linecap: round; stroke-linejoin: round; }
      .white { fill: #ffffff; }
      .rust { fill: #a86347; }
      .gold { fill: #b59143; }
      .green { fill: #4f7f6f; }
      .navy { fill: #6d86b3; }
    </style>
  </defs>

  <rect width="1200" height="760" class="bg" />
  <rect x="24" y="24" width="1152" height="712" rx="28" class="canvas" />
  <line x1="60" y1="58" x2="1140" y2="58" class="rule" />

  <text x="72" y="38" class="ink kicker">DEPENDENCY BOARD</text>
  <text x="1100" y="38" class="ink micro" text-anchor="end">owner • status • next blocked step</text>

  <text x="72" y="176" class="display title">
    <tspan x="72" dy="0">The operating view should show risk</tspan>
    <tspan x="72" dy="56">before the milestone slide does</tspan>
  </text>
  <text x="72" y="292" class="muted subtitle">
    <tspan x="72" dy="0">You can keep the dates, but the working view needs the chain underneath:</tspan>
    <tspan x="72" dy="32">who owns the dependency, where it stands, and what stalls if it slips.</tspan>
  </text>

  <rect x="792" y="96" width="98" height="118" rx="18" class="panel-soft" />
  <rect x="902" y="96" width="98" height="118" rx="18" class="panel-soft" />
  <rect x="1012" y="96" width="108" height="118" rx="18" class="panel-soft" />
  <text x="820" y="132" class="muted micro">UNOWNED</text>
  <text x="930" y="132" class="muted micro">LATE</text>
  <text x="1040" y="132" class="muted micro">BLOCKED</text>
  <text x="820" y="176" class="ink metric-num">2</text>
  <text x="930" y="176" class="ink metric-num">1</text>
  <text x="1040" y="176" class="ink metric-num">2</text>
  <text x="820" y="202" class="muted metric-copy">need owners</text>
  <text x="930" y="202" class="muted metric-copy">already slipping</text>
  <text x="1040" y="202" class="muted metric-copy">downstream waits</text>

  <rect x="72" y="352" width="1056" height="300" rx="22" class="panel" />
  <rect x="72" y="352" width="1056" height="56" rx="22" class="table-head" />

  <text x="104" y="388" class="white section">DEPENDENCY</text>
  <text x="414" y="388" class="white section">OWNER</text>
  <text x="592" y="388" class="white section">STATUS</text>
  <text x="782" y="388" class="white section">NEXT BLOCKED STEP</text>

  <rect x="74" y="410" width="1052" height="60" class="row-alt" />
  <rect x="74" y="530" width="1052" height="60" class="row-alt" />

  <line x1="388" y1="408" x2="388" y2="652" class="line" />
  <line x1="566" y1="408" x2="566" y2="652" class="line" />
  <line x1="756" y1="408" x2="756" y2="652" class="line" />
  <line x1="72" y1="470" x2="1128" y2="470" class="line" />
  <line x1="72" y1="530" x2="1128" y2="530" class="line" />
  <line x1="72" y1="590" x2="1128" y2="590" class="line" />

  <text x="104" y="438" class="ink cell">IAM policy review</text>
  <text x="104" y="458" class="muted small">rollout approval stays open until this lands</text>
  <text x="414" y="446" class="ink cell">Unassigned</text>
  <rect x="592" y="425" width="124" height="28" rx="14" fill="#f9ece4" stroke="#d8b39f" stroke-width="1.2" />
  <text x="654" y="444" fill="#9c5338" class="pill-text">NEEDS OWNER</text>
  <text x="782" y="446" class="ink cell">Launch checklist cannot lock</text>

  <text x="104" y="498" class="ink cell">Observability validation</text>
  <text x="104" y="518" class="muted small">one region still has open checks</text>
  <text x="414" y="506" class="ink cell">Platform</text>
  <rect x="592" y="485" width="86" height="28" rx="14" fill="#faeee7" stroke="#d5b1a3" stroke-width="1.2" />
  <text x="635" y="504" fill="#9c5338" class="pill-text">LATE</text>
  <text x="782" y="506" class="ink cell">Field training and signoff wait</text>

  <text x="104" y="558" class="ink cell">Cutover runbook</text>
  <text x="104" y="578" class="muted small">draft exists, escalation path still open</text>
  <text x="414" y="566" class="ink cell">Field + Eng</text>
  <rect x="592" y="545" width="110" height="28" rx="14" fill="#edf5ef" stroke="#bed1c7" stroke-width="1.2" />
  <text x="647" y="564" fill="#3f6f60" class="pill-text">IN REVIEW</text>
  <text x="782" y="566" class="ink cell">Customer prep stays tentative</text>

  <text x="104" y="618" class="ink cell">Pricing approval</text>
  <text x="104" y="638" class="muted small">commercial signoff still pending</text>
  <text x="414" y="626" class="ink cell">Finance</text>
  <rect x="592" y="605" width="118" height="28" rx="14" fill="#eef2fa" stroke="#c7d3e9" stroke-width="1.2" />
  <text x="651" y="624" fill="#5572a1" class="pill-text">AT RISK +5D</text>
  <text x="782" y="626" class="ink cell">Offer timing and paperwork slip</text>

  <rect x="72" y="674" width="1056" height="44" rx="14" class="dark" />
  <text x="102" y="702" class="white section">CHAIN UNDER THE SLIDE</text>
  <rect x="292" y="685" width="208" height="22" rx="11" fill="#edf5ef" />
  <rect x="532" y="685" width="170" height="22" rx="11" fill="#f8efe6" />
  <rect x="734" y="685" width="260" height="22" rx="11" fill="#eef2fa" />
  <text x="396" y="700" fill="#3f6f60" class="pill-text">observability validation</text>
  <text x="617" y="700" fill="#9c5338" class="pill-text">cutover runbook</text>
  <text x="864" y="700" fill="#5572a1" class="pill-text">field training + launch lock</text>
  <path d="M500 696 H532" class="line-strong" />
  <path d="M702 696 H734" class="line-strong" />
</svg>
